<svg width="20" height="20" viewBox="0 0 20 20" fill="none" xmlns="http://www.w3.org/2000/svg">
<path d="M12.1219 5.64778C11.8636 4.28993 11.1081 3.07696 10.0029 2.24558C8.89779 1.41421 7.52224 1.0241 6.14472 1.15137C4.7672 1.27865 3.48657 1.91418 2.55276 2.93394C1.61894 3.9537 1.09895 5.28451 1.09425 6.66667C1.09404 7.96349 1.54791 9.21952 2.37722 10.2171C3.20652 11.2147 4.359 11.8911 5.63497 12.1289C5.57862 12.4919 5.54785 12.8626 5.54266 13.2411C3.89667 12.9581 2.4167 12.0688 1.3949 10.7488C0.373101 9.42881 -0.116271 7.77406 0.0233901 6.11121C0.163051 4.44835 0.921596 2.89823 2.14928 1.76684C3.37697 0.635453 4.98458 0.00502272 6.65476 7.8478e-08C8.23182 -0.000241574 9.75798 0.557604 10.9626 1.57459C12.1671 2.59157 12.9722 4.00195 13.2351 5.55556C12.857 5.56074 12.4851 5.59148 12.1219 5.64778ZM11.498 10.7178C11.3936 10.6135 11.2519 10.5549 11.1043 10.5549C10.9566 10.5549 10.815 10.6135 10.7106 10.7178C10.6062 10.8221 10.5475 10.9636 10.5475 11.1111C10.5475 11.2586 10.6062 11.4001 10.7106 11.5044L12.5411 13.3333L10.7095 15.1622C10.6051 15.2665 10.5464 15.408 10.5464 15.5556C10.5464 15.7031 10.6051 15.8446 10.7095 15.9489C10.8139 16.0532 10.9555 16.1118 11.1032 16.1118C11.2508 16.1118 11.3924 16.0532 11.4969 15.9489L13.3274 14.1189L15.1579 15.9489C15.2623 16.0532 15.4039 16.1118 15.5516 16.1118C15.6992 16.1118 15.8409 16.0532 15.9453 15.9489C16.0497 15.8446 16.1083 15.7031 16.1083 15.5556C16.1083 15.408 16.0497 15.2665 15.9453 15.1622L14.1136 13.3333L15.9453 11.5044C16.0497 11.4001 16.1083 11.2586 16.1083 11.1111C16.1083 10.9636 16.0497 10.8221 15.9453 10.7178C15.8409 10.6135 15.6992 10.5549 15.5516 10.5549C15.4039 10.5549 15.2623 10.6135 15.1579 10.7178L13.3274 12.5478L11.498 10.7178ZM13.3274 20C15.0971 20 16.7943 19.2976 18.0456 18.0474C19.297 16.7971 20 15.1014 20 13.3333C20 11.5652 19.297 9.86953 18.0456 8.61929C16.7943 7.36905 15.0971 6.66667 13.3274 6.66667C11.5577 6.66667 9.86049 7.36905 8.60913 8.61929C7.35777 9.86953 6.65476 11.5652 6.65476 13.3333C6.65476 15.1014 7.35777 16.7971 8.60913 18.0474C9.86049 19.2976 11.5577 20 13.3274 20ZM13.3274 18.8889C11.8526 18.8889 10.4383 18.3036 9.3955 17.2617C8.35271 16.2198 7.76687 14.8068 7.76687 13.3333C7.76687 11.8599 8.35271 10.4468 9.3955 9.40496C10.4383 8.36309 11.8526 7.77778 13.3274 7.77778C14.8021 7.77778 16.2165 8.36309 17.2593 9.40496C18.3021 10.4468 18.8879 11.8599 18.8879 13.3333C18.8879 14.8068 18.3021 16.2198 17.2593 17.2617C16.2165 18.3036 14.8021 18.8889 13.3274 18.8889ZM9.27265 4.83778C9.37707 4.73346 9.43572 4.59197 9.43572 4.44444C9.43572 4.29692 9.37707 4.15543 9.27265 4.05111C9.16824 3.94679 9.02663 3.88819 8.87897 3.88819C8.73131 3.88819 8.5897 3.94679 8.48529 4.05111L5.54266 6.99222L4.26819 5.71778C4.21649 5.66612 4.15512 5.62515 4.08757 5.5972C4.02002 5.56924 3.94762 5.55485 3.87451 5.55485C3.80139 5.55485 3.72899 5.56924 3.66145 5.5972C3.5939 5.62515 3.53252 5.66612 3.48082 5.71778C3.42912 5.76943 3.38811 5.83075 3.36013 5.89824C3.33215 5.96573 3.31775 6.03806 3.31775 6.11111C3.31775 6.18416 3.33215 6.25649 3.36013 6.32398C3.38811 6.39147 3.42912 6.45279 3.48082 6.50445L5.14898 8.17111C5.20063 8.22285 5.26199 8.2639 5.32955 8.2919C5.3971 8.31991 5.46952 8.33433 5.54266 8.33433C5.6158 8.33433 5.68822 8.31991 5.75578 8.2919C5.82333 8.2639 5.88469 8.22285 5.93635 8.17111L9.27265 4.83778Z" fill="#A0A3A2"/>
</svg>
