<svg width="10" height="13" viewBox="0 0 10 13" fill="none" xmlns="http://www.w3.org/2000/svg">
<path d="M7.85098 1.3741V3.11688H9.81373V4.26746H7.80022C7.67614 5.32779 7.25878 6.10612 6.54813 6.60245C5.83748 7.08749 4.69818 7.33002 3.13024 7.33002V8.63287C3.13024 9.2984 3.27124 9.81165 3.55325 10.1726C3.84653 10.5223 4.28646 10.6971 4.87303 10.6971C5.98976 10.6971 6.54813 10.0203 6.54813 8.66672H8.35859C8.32475 9.77217 8.01455 10.6351 7.42798 11.2555C6.85269 11.8646 6.02924 12.1692 4.95763 12.1692C3.77321 12.1692 2.8708 11.8534 2.25039 11.2217C1.62998 10.5787 1.31978 9.63681 1.31978 8.39599V6.04408C2.59443 6.04408 3.54197 5.99896 4.16238 5.90872C4.79406 5.81848 5.23963 5.65492 5.49907 5.41803C5.7698 5.16987 5.93336 4.78634 5.98976 4.26746H0.829091V3.11688H6.0236V1.3741H0.829091V0.0543205H9.81373V1.3741H7.85098Z" fill="#A0A3A2"/>
</svg>
