<svg width="17" height="19" viewBox="0 0 17 19" fill="none" xmlns="http://www.w3.org/2000/svg">
<path d="M6.07115 9.10714C6.07115 8.94612 6.00718 8.79169 5.89332 8.67783C5.77946 8.56397 5.62503 8.5 5.46401 8.5H4.24972C4.0887 8.5 3.93427 8.56397 3.82041 8.67783C3.70654 8.79169 3.64258 8.94612 3.64258 9.10714V10.3214C3.64258 10.4825 3.70654 10.6369 3.82041 10.7507C3.93427 10.8646 4.0887 10.9286 4.24972 10.9286H5.46401C5.62503 10.9286 5.77946 10.8646 5.89332 10.7507C6.00718 10.6369 6.07115 10.4825 6.07115 10.3214V9.10714ZM6.07115 12.75C6.07115 12.589 6.00718 12.4345 5.89332 12.3207C5.77946 12.2068 5.62503 12.1429 5.46401 12.1429H4.24972C4.0887 12.1429 3.93427 12.2068 3.82041 12.3207C3.70654 12.4345 3.64258 12.589 3.64258 12.75V13.9643C3.64258 14.1253 3.70654 14.2797 3.82041 14.3936C3.93427 14.5075 4.0887 14.5714 4.24972 14.5714H5.46401C5.62503 14.5714 5.77946 14.5075 5.89332 14.3936C6.00718 14.2797 6.07115 14.1253 6.07115 13.9643V12.75ZM7.89258 8.5H9.10686C9.26789 8.5 9.42232 8.56397 9.53618 8.67783C9.65004 8.79169 9.71401 8.94612 9.71401 9.10714V10.3214C9.71401 10.4825 9.65004 10.6369 9.53618 10.7507C9.42232 10.8646 9.26789 10.9286 9.10686 10.9286H7.89258C7.73155 10.9286 7.57712 10.8646 7.46326 10.7507C7.3494 10.6369 7.28544 10.4825 7.28544 10.3214V9.10714C7.28544 8.94612 7.3494 8.79169 7.46326 8.67783C7.57712 8.56397 7.73155 8.5 7.89258 8.5ZM9.10686 12.1429H7.89258C7.73155 12.1429 7.57712 12.2068 7.46326 12.3207C7.3494 12.4345 7.28544 12.589 7.28544 12.75V13.9643C7.28544 14.1253 7.3494 14.2797 7.46326 14.3936C7.57712 14.5075 7.73155 14.5714 7.89258 14.5714H9.10686C9.26789 14.5714 9.42232 14.5075 9.53618 14.3936C9.65004 14.2797 9.71401 14.1253 9.71401 13.9643V12.75C9.71401 12.589 9.65004 12.4345 9.53618 12.3207C9.42232 12.2068 9.26789 12.1429 9.10686 12.1429ZM10.9283 9.10714C10.9283 8.94612 10.9923 8.79169 11.1061 8.67783C11.22 8.56397 11.3744 8.5 11.5354 8.5H12.7497C12.9107 8.5 13.0652 8.56397 13.179 8.67783C13.2929 8.79169 13.3569 8.94612 13.3569 9.10714V10.3214C13.3569 10.4825 13.2929 10.6369 13.179 10.7507C13.0652 10.8646 12.9107 10.9286 12.7497 10.9286H11.5354C11.3744 10.9286 11.22 10.8646 11.1061 10.7507C10.9923 10.6369 10.9283 10.4825 10.9283 10.3214V9.10714Z" fill="#444444"/>
<path fill-rule="evenodd" clip-rule="evenodd" d="M4.25 0C4.41102 0 4.56545 0.0639667 4.67931 0.177828C4.79318 0.291689 4.85714 0.446119 4.85714 0.607143V1.21429H12.1429V0.607143C12.1429 0.446119 12.2068 0.291689 12.3207 0.177828C12.4345 0.0639667 12.589 0 12.75 0C12.911 0 13.0655 0.0639667 13.1793 0.177828C13.2932 0.291689 13.3571 0.446119 13.3571 0.607143V1.21429C15.3729 1.21429 17 2.84143 17 4.85714V14.5714C17 16.5871 15.3729 18.2143 13.3571 18.2143H3.64286C1.62714 18.2143 0 16.5871 0 14.5714V4.85714C0 2.84143 1.62714 1.21429 3.64286 1.21429V0.607143C3.64286 0.446119 3.70682 0.291689 3.82069 0.177828C3.93455 0.0639667 4.08898 0 4.25 0ZM15.7857 4.85714V6.07143H1.21429V4.85714C1.21429 3.52143 2.30107 2.42857 3.64286 2.42857V3.03571C3.64286 3.19674 3.70682 3.35117 3.82069 3.46503C3.93455 3.57889 4.08898 3.64286 4.25 3.64286C4.41102 3.64286 4.56545 3.57889 4.67931 3.46503C4.79318 3.35117 4.85714 3.19674 4.85714 3.03571V2.42857H12.1429V3.03571C12.1429 3.19674 12.2068 3.35117 12.3207 3.46503C12.4345 3.57889 12.589 3.64286 12.75 3.64286C12.911 3.64286 13.0655 3.57889 13.1793 3.46503C13.2932 3.35117 13.3571 3.19674 13.3571 3.03571V2.42857C14.6929 2.42857 15.7857 3.51536 15.7857 4.85714ZM1.21429 14.5714V7.28571H15.7857V14.5714C15.7857 15.9071 14.6989 17 13.3571 17H3.64286C2.30714 17 1.21429 15.9132 1.21429 14.5714Z" fill="#444444"/>
</svg>
