<svg width="23" height="20" viewBox="0 0 23 20" fill="none" xmlns="http://www.w3.org/2000/svg">
<path d="M7.4987 19.9998C8.41917 19.9998 9.16536 19.2536 9.16536 18.3332C9.16536 17.4127 8.41917 16.6665 7.4987 16.6665C6.57822 16.6665 5.83203 17.4127 5.83203 18.3332C5.83203 19.2536 6.57822 19.9998 7.4987 19.9998Z" fill="white"/>
<path d="M19.1667 19.9998C20.0871 19.9998 20.8333 19.2536 20.8333 18.3332C20.8333 17.4127 20.0871 16.6665 19.1667 16.6665C18.2462 16.6665 17.5 17.4127 17.5 18.3332C17.5 19.2536 18.2462 19.9998 19.1667 19.9998Z" fill="white"/>
<path d="M7.07187 12.5H20.6833L22.6833 2.5H5.30677L4.86562 0H0V1.66667H3.46771L5.96771 15.8333H20.8333V14.1667H7.36562L7.07187 12.5Z" fill="white"/>
</svg>
