<svg width="20" height="21" viewBox="0 0 20 21" fill="none" xmlns="http://www.w3.org/2000/svg">
<path fill-rule="evenodd" clip-rule="evenodd" d="M10 21C11.3132 21 12.6136 20.7284 13.8268 20.2007C15.0401 19.6731 16.1425 18.8996 17.0711 17.9246C17.9997 16.9496 18.7362 15.7921 19.2388 14.5182C19.7413 13.2443 20 11.8789 20 10.5C20 9.12112 19.7413 7.75574 19.2388 6.48182C18.7362 5.20791 17.9997 4.05039 17.0711 3.07538C16.1425 2.10036 15.0401 1.32694 13.8268 0.799265C12.6136 0.27159 11.3132 -2.05469e-08 10 0C7.34784 4.14964e-08 4.8043 1.10625 2.92893 3.07538C1.05357 5.04451 0 7.71523 0 10.5C0 13.2848 1.05357 15.9555 2.92893 17.9246C4.8043 19.8938 7.34784 21 10 21ZM8.64778 5.82167L14.9189 9.48033C15.092 9.5814 15.2363 9.72923 15.3367 9.90851C15.4371 10.0878 15.4901 10.292 15.4901 10.5C15.4901 10.708 15.4371 10.9122 15.3367 11.0915C15.2363 11.2708 15.092 11.4186 14.9189 11.5197L8.64778 15.1783C8.44472 15.2968 8.2157 15.3576 7.9834 15.3546C7.7511 15.3515 7.52359 15.2848 7.32341 15.161C7.12323 15.0372 6.95732 14.8607 6.84212 14.6489C6.72693 14.437 6.66645 14.1973 6.66667 13.9533V7.04667C6.66645 6.80273 6.72693 6.56298 6.84212 6.35114C6.95732 6.13931 7.12323 5.96276 7.32341 5.83898C7.52359 5.7152 7.7511 5.64848 7.9834 5.64545C8.2157 5.64241 8.44472 5.70316 8.64778 5.82167Z" fill="#444444"/>
</svg>
