<svg width="26" height="25" viewBox="0 0 26 25" fill="none" xmlns="http://www.w3.org/2000/svg">
<path d="M1 12.2052C1 7.75734 1 5.53283 2.38236 4.15165C3.76472 2.77047 5.98805 2.76929 10.4359 2.76929H15.1538C19.6017 2.76929 21.8262 2.76929 23.2074 4.15165C24.5886 5.53401 24.5897 7.75734 24.5897 12.2052V14.5642C24.5897 19.012 24.5897 21.2365 23.2074 22.6177C21.825 23.9989 19.6017 24.0001 15.1538 24.0001H10.4359C5.98805 24.0001 3.76354 24.0001 2.38236 22.6177C1.00118 21.2353 1 19.012 1 14.5642V12.2052Z" stroke="#A0A3A2" stroke-width="1.76923"/>
<path d="M6.89754 2.76923V1M18.6924 2.76923V1M1.58984 8.66667H24.0001" stroke="#A0A3A2" stroke-width="1.76923" stroke-linecap="round"/>
<path d="M6.89771 17.5127C7.05404 17.5127 7.20415 17.575 7.3147 17.6855C7.42522 17.7961 7.48755 17.9462 7.48755 18.1025C7.48754 18.2589 7.42523 18.4089 7.3147 18.5195C7.20415 18.6301 7.05404 18.6923 6.89771 18.6924C6.74135 18.6924 6.5913 18.6301 6.48071 18.5195C6.37012 18.4089 6.30787 18.2589 6.30786 18.1025C6.30786 17.9461 6.37011 17.7961 6.48071 17.6855C6.5913 17.575 6.74134 17.5127 6.89771 17.5127ZM12.7952 17.5127C12.9515 17.5128 13.1016 17.575 13.2122 17.6855C13.3227 17.7961 13.385 17.9462 13.385 18.1025C13.385 18.2589 13.3227 18.4089 13.2122 18.5195C13.1016 18.6301 12.9515 18.6923 12.7952 18.6924C12.6388 18.6924 12.4888 18.6301 12.3782 18.5195C12.2676 18.4089 12.2053 18.2589 12.2053 18.1025C12.2053 17.9461 12.2676 17.7961 12.3782 17.6855C12.4888 17.575 12.6388 17.5127 12.7952 17.5127ZM18.6926 17.5127C18.8489 17.5128 18.9991 17.575 19.1096 17.6855C19.2201 17.7961 19.2825 17.9462 19.2825 18.1025C19.2825 18.2589 19.2201 18.409 19.1096 18.5195C18.9991 18.6301 18.8489 18.6923 18.6926 18.6924C18.5363 18.6924 18.3862 18.63 18.2756 18.5195C18.165 18.4089 18.1028 18.2589 18.1028 18.1025C18.1028 17.9461 18.165 17.7961 18.2756 17.6855C18.3862 17.575 18.5363 17.5127 18.6926 17.5127ZM6.89771 12.7949C7.05404 12.795 7.20415 12.8572 7.3147 12.9678C7.42517 13.0784 7.48755 13.2285 7.48755 13.3848C7.4875 13.5411 7.42525 13.6912 7.3147 13.8018C7.20415 13.9123 7.05404 13.9746 6.89771 13.9746C6.74139 13.9746 6.59129 13.9122 6.48071 13.8018C6.37016 13.6912 6.30791 13.5411 6.30786 13.3848C6.30786 13.2284 6.37011 13.0784 6.48071 12.9678C6.59131 12.8572 6.7413 12.7949 6.89771 12.7949ZM12.7952 12.7949C12.9515 12.795 13.1016 12.8572 13.2122 12.9678C13.3226 13.0784 13.385 13.2285 13.385 13.3848C13.385 13.5411 13.3227 13.6912 13.2122 13.8018C13.1016 13.9123 12.9515 13.9745 12.7952 13.9746C12.6389 13.9746 12.4888 13.9122 12.3782 13.8018C12.2676 13.6912 12.2054 13.5411 12.2053 13.3848C12.2053 13.2284 12.2676 13.0784 12.3782 12.9678C12.4888 12.8572 12.6388 12.7949 12.7952 12.7949ZM18.6926 12.7949C18.8489 12.795 18.9991 12.8572 19.1096 12.9678C19.2201 13.0783 19.2825 13.2285 19.2825 13.3848C19.2824 13.5411 19.2202 13.6912 19.1096 13.8018C18.9991 13.9123 18.8489 13.9745 18.6926 13.9746C18.5363 13.9746 18.3862 13.9122 18.2756 13.8018C18.1651 13.6912 18.1028 13.5411 18.1028 13.3848C18.1028 13.2284 18.165 13.0784 18.2756 12.9678C18.3862 12.8572 18.5362 12.7949 18.6926 12.7949Z" fill="white" stroke="#A0A3A2" stroke-width="1.17949"/>
</svg>
