<svg width="23" height="23" viewBox="0 0 23 23" fill="none" xmlns="http://www.w3.org/2000/svg">
<path d="M11.5 23C9.22552 23 7.00211 22.3255 5.11095 21.0619C3.21978 19.7983 1.7458 18.0022 0.87539 15.9009C0.00498276 13.7995 -0.222756 11.4872 0.220974 9.25646C0.664704 7.02568 1.75997 4.97658 3.36828 3.36828C4.97658 1.75997 7.02568 0.664704 9.25646 0.220974C11.4872 -0.222756 13.7995 0.00498276 15.9009 0.87539C18.0022 1.7458 19.7983 3.21978 21.0619 5.11095C22.3255 7.00211 23 9.22552 23 11.5C23 14.55 21.7884 17.4751 19.6317 19.6317C17.4751 21.7884 14.55 23 11.5 23ZM11.5 1.64286C9.55044 1.64286 7.64467 2.22097 6.02367 3.30409C4.40267 4.38721 3.13926 5.92668 2.39319 7.72784C1.64713 9.529 1.45192 11.5109 1.83226 13.423C2.2126 15.3351 3.15141 17.0915 4.52995 18.4701C5.9085 19.8486 7.66487 20.7874 9.57697 21.1677C11.4891 21.5481 13.471 21.3529 15.2722 20.6068C17.0733 19.8607 18.6128 18.5973 19.6959 16.9763C20.779 15.3553 21.3571 13.4496 21.3571 11.5C21.3571 8.88573 20.3186 6.37852 18.4701 4.52995C16.6215 2.68138 14.1143 1.64286 11.5 1.64286Z" fill="#A0A3A2"/>
<path d="M15.2703 16.4286L10.6785 11.8368V4.10718H12.3213V11.155L16.4285 15.2704L15.2703 16.4286Z" fill="#A0A3A2"/>
</svg>
