<svg width="24" height="24" viewBox="0 0 24 24" fill="none" xmlns="http://www.w3.org/2000/svg">
<path d="M21 12C21 13.1 20.1 14 19 14C17.9 14 17 13.1 17 12C17 10.9 17.9 10 19 10C20.1 10 21 10.9 21 12Z" stroke="currentColor" stroke-width="2"/>
<path d="M7 12C7 13.1 6.1 14 5 14C3.9 14 3 13.1 3 12C3 10.9 3.9 10 5 10C6.1 10 7 10.9 7 12Z" stroke="currentColor" stroke-width="2"/>
<path d="M7 12H17" stroke="currentColor" stroke-width="2" stroke-dasharray="2 2"/>
<path d="M19 10V6C19 5.46957 18.7893 4.96086 18.4142 4.58579C18.0391 4.21071 17.5304 4 17 4H7C6.46957 4 5.96086 4.21071 5.58579 4.58579C5.21071 4.96086 5 5.46957 5 6V10" stroke="currentColor" stroke-width="2"/>
<path d="M19 14V18C19 18.5304 18.7893 19.0391 18.4142 19.4142C18.0391 19.7893 17.5304 20 17 20H7C6.46957 20 5.96086 19.7893 5.58579 19.4142C5.21071 19.0391 5 18.5304 5 18V14" stroke="currentColor" stroke-width="2"/>
<path d="M9 8L15 8" stroke="currentColor" stroke-width="2" stroke-linecap="round"/>
<path d="M9 16L15 16" stroke="currentColor" stroke-width="2" stroke-linecap="round"/>
</svg>
