<svg width="17" height="17" viewBox="0 0 17 17" fill="none" xmlns="http://www.w3.org/2000/svg">
<path d="M14.3142 0L17.0001 2.68591L14.9525 4.73437L12.2666 2.04846L14.3142 0ZM4.47656 12.5235H7.16248L13.6866 5.99944L11.0006 3.31352L4.47656 9.83761V12.5235Z" fill="#2F6288"/>
<path d="M14.3249 15.2094H4.61798C4.5947 15.2094 4.57053 15.2183 4.54725 15.2183C4.51771 15.2183 4.48816 15.2103 4.45772 15.2094H1.79061V2.67513H7.92076L9.71137 0.884521H1.79061C0.803088 0.884521 0 1.68671 0 2.67513V15.2094C0 16.1978 0.803088 17 1.79061 17H14.3249C14.7998 17 15.2552 16.8113 15.591 16.4755C15.9268 16.1397 16.1155 15.6843 16.1155 15.2094V7.44889L14.3249 9.2395V15.2094Z" fill="#2F6288"/>
</svg>
