<svg width="57" height="57" viewBox="0 0 57 57" fill="none" xmlns="http://www.w3.org/2000/svg">
<path d="M49.875 40.375V19H16.625V40.375H49.875ZM49.875 7.125C51.1348 7.125 52.343 7.62544 53.2338 8.51624C54.1246 9.40704 54.625 10.6152 54.625 11.875V40.375C54.625 41.6348 54.1246 42.843 53.2338 43.7338C52.343 44.6246 51.1348 45.125 49.875 45.125H16.625C15.3652 45.125 14.157 44.6246 13.2662 43.7338C12.3754 42.843 11.875 41.6348 11.875 40.375V11.875C11.875 10.6152 12.3754 9.40704 13.2662 8.51624C14.157 7.62544 15.3652 7.125 16.625 7.125H19V2.375H23.75V7.125H42.75V2.375H47.5V7.125H49.875ZM7.125 49.875H40.375V54.625H7.125C5.86522 54.625 4.65704 54.1246 3.76624 53.2338C2.87545 52.343 2.375 51.1348 2.375 49.875V21.375H7.125V49.875ZM45.125 35.625H35.625V26.125H45.125V35.625Z" fill="#535456"/>
</svg>
