<svg width="19" height="20" viewBox="0 0 19 20" fill="none" xmlns="http://www.w3.org/2000/svg">
<path d="M10.1562 9.23828C10.4036 9.33594 10.6445 9.44336 10.8789 9.56055C11.1133 9.67773 11.3411 9.8112 11.5625 9.96094C11.4193 10.1172 11.2891 10.2799 11.1719 10.4492C11.0547 10.6185 10.9473 10.8008 10.8496 10.9961C10.3483 10.6706 9.81445 10.4232 9.24805 10.2539C8.68164 10.0846 8.09896 10 7.5 10C6.92708 10 6.3737 10.0749 5.83984 10.2246C5.30599 10.3743 4.80794 10.5827 4.3457 10.8496C3.88346 11.1165 3.46354 11.4421 3.08594 11.8262C2.70833 12.2103 2.38281 12.6335 2.10938 13.0957C1.83594 13.5579 1.62435 14.056 1.47461 14.5898C1.32487 15.1237 1.25 15.6771 1.25 16.25H0C0 15.4688 0.113932 14.7168 0.341797 13.9941C0.569661 13.2715 0.898438 12.6042 1.32812 11.9922C1.75781 11.3802 2.26562 10.8366 2.85156 10.3613C3.4375 9.88607 4.10156 9.51172 4.84375 9.23828C4.10807 8.75651 3.53516 8.15104 3.125 7.42188C2.71484 6.69271 2.50651 5.88542 2.5 5C2.5 4.3099 2.63021 3.66211 2.89062 3.05664C3.15104 2.45117 3.50586 1.92057 3.95508 1.46484C4.4043 1.00911 4.9349 0.651042 5.54688 0.390625C6.15885 0.130208 6.8099 0 7.5 0C8.1901 0 8.83789 0.130208 9.44336 0.390625C10.0488 0.651042 10.5794 1.00586 11.0352 1.45508C11.4909 1.9043 11.849 2.4349 12.1094 3.04688C12.3698 3.65885 12.5 4.3099 12.5 5C12.5 5.42969 12.4479 5.84961 12.3438 6.25977C12.2396 6.66992 12.0833 7.05729 11.875 7.42188C11.6667 7.78646 11.4225 8.12175 11.1426 8.42773C10.8626 8.73372 10.5339 9.00391 10.1562 9.23828ZM3.75 5C3.75 5.52083 3.84766 6.00586 4.04297 6.45508C4.23828 6.9043 4.50521 7.30143 4.84375 7.64648C5.18229 7.99154 5.57943 8.26172 6.03516 8.45703C6.49089 8.65234 6.97917 8.75 7.5 8.75C8.01432 8.75 8.49935 8.65234 8.95508 8.45703C9.41081 8.26172 9.80794 7.99479 10.1465 7.65625C10.485 7.31771 10.7552 6.92057 10.957 6.46484C11.1589 6.00911 11.2565 5.52083 11.25 5C11.25 4.48568 11.1523 4.00065 10.957 3.54492C10.7617 3.08919 10.4948 2.69206 10.1562 2.35352C9.81771 2.01497 9.41732 1.74479 8.95508 1.54297C8.49284 1.34115 8.00781 1.24349 7.5 1.25C6.97917 1.25 6.49414 1.34766 6.04492 1.54297C5.5957 1.73828 5.19857 2.00521 4.85352 2.34375C4.50846 2.68229 4.23828 3.08268 4.04297 3.54492C3.84766 4.00716 3.75 4.49219 3.75 5ZM18.125 13.125C18.125 13.4635 18.0729 13.7923 17.9688 14.1113C17.8646 14.4303 17.7083 14.7266 17.5 15V20L15 18.75L12.5 20V15C12.2982 14.7266 12.1452 14.4303 12.041 14.1113C11.9368 13.7923 11.8815 13.4635 11.875 13.125C11.875 12.6953 11.9564 12.2917 12.1191 11.9141C12.2819 11.5365 12.5033 11.2077 12.7832 10.9277C13.0632 10.6478 13.3952 10.4232 13.7793 10.2539C14.1634 10.0846 14.5703 10 15 10C15.4297 10 15.8333 10.0814 16.2109 10.2441C16.5885 10.4069 16.9173 10.6315 17.1973 10.918C17.4772 11.2044 17.7018 11.5365 17.8711 11.9141C18.0404 12.2917 18.125 12.6953 18.125 13.125ZM15 11.25C14.7396 11.25 14.4954 11.2988 14.2676 11.3965C14.0397 11.4941 13.8411 11.6276 13.6719 11.7969C13.5026 11.9661 13.3691 12.1647 13.2715 12.3926C13.1738 12.6204 13.125 12.8646 13.125 13.125C13.125 13.3854 13.1738 13.6296 13.2715 13.8574C13.3691 14.0853 13.5026 14.2839 13.6719 14.4531C13.8411 14.6224 14.0397 14.7559 14.2676 14.8535C14.4954 14.9512 14.7396 15 15 15C15.2604 15 15.5046 14.9512 15.7324 14.8535C15.9603 14.7559 16.1589 14.6224 16.3281 14.4531C16.4974 14.2839 16.6309 14.0853 16.7285 13.8574C16.8262 13.6296 16.875 13.3854 16.875 13.125C16.875 12.8646 16.8262 12.6204 16.7285 12.3926C16.6309 12.1647 16.4974 11.9661 16.3281 11.7969C16.1589 11.6276 15.9603 11.4941 15.7324 11.3965C15.5046 11.2988 15.2604 11.25 15 11.25ZM16.25 17.9785V15.9863C15.8594 16.1621 15.4427 16.25 15 16.25C14.5573 16.25 14.1406 16.1621 13.75 15.9863V17.9785C13.9583 17.8743 14.1667 17.7734 14.375 17.6758C14.5833 17.5781 14.7917 17.4707 15 17.3535C15.2083 17.4642 15.4167 17.5684 15.625 17.666C15.8333 17.7637 16.0417 17.8678 16.25 17.9785Z" fill="#535456"/>
</svg>
