<svg width="23" height="24" viewBox="0 0 23 24" fill="none" xmlns="http://www.w3.org/2000/svg">
<path d="M14.6667 22.055V13.6106C14.6667 13.3306 14.5555 13.0621 14.3575 12.8642C14.1595 12.6662 13.8911 12.555 13.6111 12.555H9.38888C9.10893 12.555 8.84045 12.6662 8.64249 12.8642C8.44454 13.0621 8.33333 13.3306 8.33333 13.6106V22.055" stroke="#535456" stroke-width="2.11111" stroke-linecap="round" stroke-linejoin="round"/>
<path d="M2 10.4439C1.99993 10.1368 2.06685 9.83339 2.19611 9.55482C2.32537 9.27625 2.51384 9.02924 2.74839 8.83101L10.1373 2.49873C10.5183 2.17669 11.0011 2 11.5 2C11.9989 2 12.4817 2.17669 12.8627 2.49873L20.2516 8.83101C20.4862 9.02924 20.6746 9.27625 20.8039 9.55482C20.9331 9.83339 21.0001 10.1368 21 10.4439V19.9439C21 20.5038 20.7776 21.0408 20.3817 21.4367C19.9858 21.8326 19.4488 22.055 18.8889 22.055H4.11111C3.55121 22.055 3.01424 21.8326 2.61833 21.4367C2.22242 21.0408 2 20.5038 2 19.9439V10.4439Z" stroke="#535456" stroke-width="2.11111" stroke-linecap="round" stroke-linejoin="round"/>
</svg>
