<svg width="25" height="22" viewBox="0 0 25 22" fill="none" xmlns="http://www.w3.org/2000/svg">
<path d="M8.77603 8.77778C8.77603 13.0733 12.1094 16.5556 12.1094 16.5556C12.1094 16.5556 15.4427 13.0733 15.4427 8.77778C15.4427 4.48222 12.1094 1 12.1094 1C12.1094 1 8.77603 4.48222 8.77603 8.77778Z" stroke="#535456" stroke-width="1.66667" stroke-linecap="round" stroke-linejoin="round"/>
<path d="M5.80937 6.55557C3.34826 5.49557 0.99826 5.44446 0.99826 5.44446C0.99826 5.44446 1.10493 10.3122 4.1727 13.3811C7.24048 16.45 12.1094 16.5556 12.1094 16.5556C12.1094 16.5556 16.9771 16.4489 20.046 13.3811C23.1149 10.3133 23.2205 5.44446 23.2205 5.44446C23.2205 5.44446 20.8716 5.49557 18.4094 6.55557M12.1316 16.5556C11.9471 18.0367 12.8427 21 16.0138 21C18.2305 21 19.3394 18.7778 23.2205 21C22.776 18.7778 21.8871 17.3556 20.5905 16.5556M12.086 16.5556C12.2716 18.0367 11.3749 21 8.20604 21C5.98715 21 4.87937 18.7778 0.99826 21C1.4427 18.7778 2.33159 17.3556 3.62826 16.5556" stroke="#535456" stroke-width="1.66667" stroke-linecap="round" stroke-linejoin="round"/>
</svg>
