<svg width="30" height="20" viewBox="0 0 30 20" fill="none" xmlns="http://www.w3.org/2000/svg">
<path d="M1 15.7778V4.11111C1 3.28599 1.32778 2.49467 1.91122 1.91122C2.49467 1.32778 3.28599 1 4.11111 1H17.3333C18.1585 1 18.9498 1.32778 19.5332 1.91122C20.1167 2.49467 20.4444 3.28599 20.4444 4.11111V15.7778C20.4444 16.6029 20.1167 17.3942 19.5332 17.9777C18.9498 18.5611 18.1585 18.8889 17.3333 18.8889H4.11111C3.28599 18.8889 2.49467 18.5611 1.91122 17.9777C1.32778 17.3942 1 16.6029 1 15.7778ZM27.7058 2.15267L21.4836 7.69511C21.4015 7.76793 21.3359 7.85728 21.2908 7.95727C21.2458 8.05727 21.2224 8.16566 21.2222 8.27533V11.0411C21.2224 11.1508 21.2458 11.2592 21.2908 11.3592C21.3359 11.4592 21.4015 11.5485 21.4836 11.6213L27.7058 17.1638C27.8179 17.2633 27.9564 17.3284 28.1046 17.351C28.2528 17.3737 28.4044 17.3531 28.5411 17.2916C28.6779 17.2301 28.7939 17.1305 28.8753 17.0046C28.9567 16.8787 29 16.7319 29 16.582V2.73444C29 2.58452 28.9567 2.43778 28.8753 2.31188C28.7939 2.18599 28.6779 2.08631 28.5411 2.02484C28.4044 1.96337 28.2528 1.94273 28.1046 1.96541C27.9564 1.98809 27.8179 2.05312 27.7058 2.15267Z" stroke="#535456" stroke-width="2" stroke-linecap="round" stroke-linejoin="round"/>
</svg>
