<svg width="24" height="24" viewBox="0 0 24 24" fill="none" xmlns="http://www.w3.org/2000/svg">
<path d="M19 3H18V1C18 0.45 17.55 0 17 0C16.45 0 16 0.45 16 1V3H8V1C8 0.45 7.55 0 7 0C6.45 0 6 0.45 6 1V3H5C3.89 3 3.01 3.9 3.01 5L3 19C3 20.1 3.89 21 5 21H19C20.1 21 21 20.1 21 19V5C21 3.9 20.1 3 19 3ZM19 19H5V8H19V19Z" fill="currentColor"/>
<path d="M9 10H7V12H9V10Z" fill="currentColor"/>
<path d="M13 10H11V12H13V10Z" fill="currentColor"/>
<path d="M17 10H15V12H17V10Z" fill="currentColor"/>
<path d="M9 14H7V16H9V14Z" fill="currentColor"/>
<path d="M13 14H11V16H13V14Z" fill="currentColor"/>
<path d="M17 14H15V16H17V14Z" fill="currentColor"/>
<circle cx="18" cy="6" r="2" fill="#4F46E5"/>
<path d="M16.5 5.5L17.5 6.5L19.5 4.5" stroke="white" stroke-width="1" fill="none"/>
</svg>
