<svg width="42" height="32" viewBox="0 0 42 32" fill="none" xmlns="http://www.w3.org/2000/svg">
<path d="M22.5016 32V22.8571H28.502L21.0015 13.7143L13.501 22.8571H19.5014V32H12.0009V31.9238C11.7488 31.939 11.5088 32 11.2508 32C8.2669 32 5.40522 30.7959 3.29528 28.6526C1.18535 26.5094 0 23.6025 0 20.5714C0 14.7078 4.36531 9.92914 9.96671 9.27391C10.4578 6.66604 11.8282 4.31353 13.8421 2.62097C15.8561 0.928419 18.3877 0.00162748 21.0015 0C23.6157 0.00146792 26.1478 0.928136 28.1622 2.62066C30.1766 4.31318 31.5476 6.66578 32.0393 9.27391C37.6407 9.92914 42 14.7078 42 20.5714C42 23.6025 40.8147 26.5094 38.7047 28.6526C36.5948 30.7959 33.7331 32 30.7492 32C30.4972 32 30.2542 31.939 29.9991 31.9238V32H22.5016Z" fill="#2F6288"/>
</svg>
