<svg width="25" height="26" viewBox="0 0 25 26" fill="none" xmlns="http://www.w3.org/2000/svg">
<path d="M12.5006 24.5L22.8908 19.1228C23.2946 18.9133 23.4965 18.8097 23.6434 18.6551C23.7736 18.5194 23.8722 18.3567 23.9322 18.1785C24.0012 17.9753 24.0012 17.7491 24.0012 17.2942V7.29123M12.5006 24.5L2.11045 19.1228C1.70665 18.9133 1.50475 18.8097 1.3578 18.6551C1.22764 18.5194 1.12903 18.3567 1.069 18.1785C1 17.9753 1 17.7479 1 17.2917V7.29123M12.5006 24.5V12.9189M24.0012 7.29123L12.5006 12.9189M24.0012 7.29123L18.2509 4.31385M1 7.29123L11.5665 1.82332C11.909 1.64698 12.0789 1.55753 12.2591 1.52303C12.4187 1.49232 12.5826 1.49232 12.7421 1.52303C12.921 1.55753 13.0923 1.64698 13.4335 1.82332L18.2509 4.31385M1 7.29123L6.75031 10.1063M12.5006 12.9189L6.75031 10.1051M18.2509 4.31385L6.75031 10.1051M6.75031 10.1051V12.9189" stroke="#A0A3A2" stroke-width="1.91677" stroke-linecap="round" stroke-linejoin="round"/>
</svg>
