<svg width="31" height="24" viewBox="0 0 31 24" fill="none" xmlns="http://www.w3.org/2000/svg">
<path d="M20.4823 11.9999C19.1663 11.9999 17.8939 11.4123 16.8979 10.346C15.9295 9.30586 15.338 7.91881 15.2337 6.44152C15.1223 4.86566 15.603 3.41653 16.5868 2.36041C17.5706 1.30429 18.9461 0.734619 20.4823 0.734619C22.0076 0.734619 23.387 1.31453 24.3676 2.36809C25.3578 3.43189 25.8397 4.87846 25.7284 6.44088C25.6215 7.92009 25.0307 9.3065 24.0642 10.3453C23.0708 11.4123 21.7989 11.9999 20.4823 11.9999ZM28.9204 23.2652H12.0448C11.7735 23.2667 11.5055 23.2059 11.2614 23.0875C11.0172 22.9691 10.8035 22.7962 10.6367 22.5823C10.4597 22.3503 10.3375 22.0814 10.2792 21.7955C10.2209 21.5096 10.228 21.2143 10.3 20.9315C10.8389 18.7674 12.1741 16.9727 14.1609 15.7418C15.9243 14.6498 18.1691 14.0482 20.4823 14.0482C22.841 14.0482 25.0268 14.6242 26.8005 15.7156C28.7918 16.94 30.1289 18.745 30.6653 20.9354C30.7364 21.2183 30.7427 21.5137 30.6838 21.7994C30.6248 22.0851 30.5021 22.3538 30.3247 22.5855C30.1581 22.7985 29.9448 22.9704 29.7014 23.0883C29.458 23.2061 29.1908 23.2666 28.9204 23.2652ZM8.3849 12.256C6.13248 12.256 4.15209 10.1616 3.96839 7.5879C3.8775 6.26934 4.28843 5.05 5.12052 4.15582C5.94366 3.27059 7.10475 2.78286 8.3849 2.78286C9.66505 2.78286 10.8172 3.27315 11.6448 4.1635C12.4833 5.06472 12.8929 6.2815 12.7969 7.58918C12.6132 10.1623 10.6335 12.256 8.3849 12.256ZM12.5876 14.269C11.4617 13.7185 10.0005 13.4433 8.38554 13.4433C6.49988 13.4433 4.66863 13.9349 3.22846 14.8271C1.59563 15.8404 0.497265 17.3158 0.0536935 19.0971C-0.0112196 19.3533 -0.0173593 19.6209 0.0357338 19.8798C0.088827 20.1387 0.199778 20.3823 0.360289 20.5923C0.512593 20.7878 0.707712 20.9458 0.930638 21.0541C1.15356 21.1624 1.39836 21.2181 1.6462 21.217H8.75103C8.87094 21.217 8.98705 21.1749 9.07911 21.098C9.17116 21.0212 9.23333 20.9145 9.25476 20.7965C9.2618 20.7561 9.27077 20.7158 9.28101 20.6761C9.82379 18.496 11.0956 16.6539 12.9749 15.311C13.044 15.2612 13.0996 15.1949 13.1366 15.1182C13.1737 15.0415 13.1909 14.9567 13.1869 14.8716C13.1829 14.7865 13.1578 14.7037 13.1137 14.6308C13.0696 14.5579 13.008 14.4971 12.9346 14.454C12.8341 14.3951 12.7188 14.333 12.5876 14.269Z" fill="#A0A3A2"/>
</svg>
